<?xml version="1.0" standalone="no"?>
<!DOCTYPE svg PUBLIC "-//W3C//DTD SVG 20010904//EN"
 "http://www.w3.org/TR/2001/REC-SVG-20010904/DTD/svg10.dtd">
<svg version="1.0" xmlns="http://www.w3.org/2000/svg"
 width="138.000000pt" height="138.000000pt" viewBox="0 0 138.000000 138.000000"
 preserveAspectRatio="xMidYMid meet">
<metadata>
Created by potrace 1.14, written by Peter Selinger 2001-2017
</metadata>
<g transform="translate(0.000000,138.000000) scale(0.100000,-0.100000)"
fill="#000000" stroke="none">
<path d="M285 1126 c-122 -56 -207 -214 -266 -491 -21 -102 -25 -248 -7 -308
7 -22 27 -56 45 -74 28 -28 41 -33 79 -33 70 0 108 22 217 128 132 128 154
137 337 137 183 0 205 -9 337 -137 109 -106 147 -128 217 -128 38 0 51 5 79
33 43 43 57 94 57 203 0 139 -56 368 -122 497 -82 164 -231 235 -379 181 -24
-8 -77 -22 -116 -30 -63 -12 -83 -12 -145 0 -40 8 -93 22 -117 30 -65 24 -156
21 -216 -8z"/>
</g>
</svg>
